HIERARCHY
ROOT root
{
	OFFSET 0.000000 0.000000 0.000000
	CHANNELS 6 Xposition Yposition Zposition Zrotation Yrotation Xrotation
	JOINT lhip
	{
		OFFSET 0.058581 -0.082280 -0.017664
		CHANNELS 3 Zrotation Yrotation Xrotation
		JOINT lknee
		{
			OFFSET 0.043451 -0.386469 0.008037
			CHANNELS 3 Zrotation Yrotation Xrotation
			JOINT lankle
			{
				OFFSET -0.014790 -0.426874 -0.037428
				CHANNELS 3 Zrotation Yrotation Xrotation
				JOINT ltoe
				{
					OFFSET 0.041054 -0.060286 0.122042
					CHANNELS 3 Zrotation Yrotation Xrotation
					End Site
					{
						OFFSET 0.000000 0.000000 0.000000
					}
				}
			}
		}
	}
	JOINT rhip
	{
		OFFSET -0.060310 -0.090513 -0.013543
		CHANNELS 3 Zrotation Yrotation Xrotation
		JOINT rknee
		{
			OFFSET -0.043257 -0.383688 -0.004843
			CHANNELS 3 Zrotation Yrotation Xrotation
			JOINT rankle
			{
				OFFSET 0.019056 -0.420046 -0.034562
				CHANNELS 3 Zrotation Yrotation Xrotation
				JOINT rtoe
				{
					OFFSET -0.034840 -0.062106 0.130323
					CHANNELS 3 Zrotation Yrotation Xrotation
					End Site
					{
						OFFSET 0.000000 0.000000 0.000000
					}
				}
			}
		}
	}
	JOINT lowerback
	{
		OFFSET 0.004439 0.124404 -0.038385
		CHANNELS 3 Zrotation Yrotation Xrotation
		JOINT upperback
		{
			OFFSET 0.004488 0.137956 0.026820
			CHANNELS 3 Zrotation Yrotation Xrotation
			JOINT chest
			{
				OFFSET -0.002265 0.056032 0.002855
				CHANNELS 3 Zrotation Yrotation Xrotation
				JOINT lowerneck
				{
					OFFSET -0.013390 0.211636 -0.033468
					CHANNELS 3 Zrotation Yrotation Xrotation
					JOINT upperneck
					{
						OFFSET 0.010113 0.088937 0.050410
						CHANNELS 3 Zrotation Yrotation Xrotation
						End Site
						{
							OFFSET 0.000000 0.000000 0.000000
						}
					}
				}
				JOINT lclavicle
				{
					OFFSET 0.071702 0.114000 -0.018898
					CHANNELS 3 Zrotation Yrotation Xrotation
					JOINT lshoulder
					{
						OFFSET 0.122921 0.045205 -0.019046
						CHANNELS 3 Zrotation Yrotation Xrotation
						JOINT lelbow
						{
							OFFSET 0.255332 -0.015649 -0.022946
							CHANNELS 3 Zrotation Yrotation Xrotation
							JOINT lwrist
							{
								OFFSET 0.265709 0.012698 -0.007375
								CHANNELS 3 Zrotation Yrotation Xrotation
								End Site
								{
									OFFSET 0.000000 0.000000 0.000000
								}
							}
						}
					}
				}
				JOINT rclavicle
				{
					OFFSET -0.082954 0.112472 -0.023707
					CHANNELS 3 Zrotation Yrotation Xrotation
					JOINT rshoulder
					{
						OFFSET -0.113228 0.046853 -0.008472
						CHANNELS 3 Zrotation Yrotation Xrotation
						JOINT relbow
						{
							OFFSET -0.260127 -0.014369 -0.031269
							CHANNELS 3 Zrotation Yrotation Xrotation
							JOINT rwrist
							{
								OFFSET -0.269108 0.006794 -0.006027
								CHANNELS 3 Zrotation Yrotation Xrotation
								End Site
								{
									OFFSET 0.000000 0.000000 0.000000
								}
							}
						}
					}
				}
			}
		}
	}
}
MOTION
Frames: 8
Frame Time: 0.033333
-0.289788 -0.379848 0.979292 -163.953670 3.606758 90.413324 -0.960811 7.476008 12.431327 -2.212723 -15.440112 0.712480 2.400621 4.857758 -26.105606 0.000000 -0.000000 0.000000 -2.110924 2.530384 -38.408288 0.266291 -15.240850 15.668855 7.949423 -16.649974 -19.374049 0.000000 -0.000000 0.000000 -3.106806 -5.235627 14.124360 1.700030 -1.790425 -7.231621 3.346260 -5.404983 1.319629 6.481538 0.428036 -5.949380 -6.104146 0.449282 4.117983 -27.774204 -9.071988 -1.216248 -41.738795 -11.626796 5.817868 11.709487 -37.295536 -8.198761 23.930738 -8.102475 0.194322 21.708055 9.533792 -14.370801 3.001455 35.921608 -25.027405 -136.488759 54.419751 -123.641618 -46.130771 23.456386 2.147289 
-0.294934 -0.343382 0.974347 -161.477332 3.481887 91.284665 0.801626 8.806001 14.003845 -2.388029 -17.328859 1.471152 1.295468 2.735614 -25.814430 0.000000 -0.000000 0.000000 -1.704686 1.069210 -40.792175 0.692725 -14.104039 13.638896 8.179211 -14.441498 -19.186789 0.000000 -0.000000 0.000000 -3.370848 -5.788584 13.625216 1.593396 -1.992335 -7.357805 3.435020 -5.818668 0.842873 6.758988 -0.983639 -6.050190 -5.207806 0.452168 3.321628 -28.189683 -8.743049 -1.626534 -41.627929 -11.111853 5.845294 11.021747 -38.620423 -8.362214 24.325670 -8.328110 1.283346 21.125904 9.013709 -14.957272 2.924857 34.325193 -24.461852 -136.330575 52.272281 -126.111980 -44.117193 23.453944 5.546723 
-0.299759 -0.304421 0.969857 -159.135148 3.439156 91.685188 2.544678 8.526616 15.879340 -2.531766 -18.785711 2.508821 -0.161684 1.775642 -24.816726 0.000000 -0.000000 0.000000 -1.510465 1.077446 -41.222075 1.748527 -13.414461 14.791589 8.983809 -12.756189 -18.913288 0.000000 -0.000000 0.000000 -3.522627 -6.314814 13.121763 1.631751 -2.180967 -6.998823 3.150047 -5.911612 0.364051 7.346428 -1.906543 -7.180420 -4.919198 -0.544923 3.557632 -28.911658 -8.523151 -1.671587 -40.964064 -10.498682 5.734449 11.071765 -39.576567 -9.048924 22.006657 -8.760367 1.831238 20.870542 9.222305 -15.457323 2.554815 32.811880 -23.771462 -133.726122 49.988946 -125.321520 -42.377637 24.375799 8.587199 
-0.304551 -0.262750 0.966899 -157.184117 3.651877 92.055410 4.297046 7.092645 17.907310 -2.466913 -19.566850 3.273572 -2.146507 1.561351 -22.521624 0.000000 -0.000000 0.000000 -1.400893 3.973212 -40.233137 2.022881 -12.567834 17.482475 8.351115 -11.937223 -18.973656 0.000000 -0.000000 0.000000 -3.524621 -6.905764 12.366323 1.656819 -1.997935 -6.325634 2.754481 -5.847055 -0.535045 8.111119 -2.340790 -8.067014 -4.884421 -1.887322 3.733810 -29.413323 -8.163229 -1.813915 -40.848016 -8.961799 6.160950 12.334497 -40.738034 -9.953460 21.356881 -9.077212 2.513322 20.983056 10.039441 -16.211955 2.343073 32.492642 -23.842188 -130.480285 49.250480 -122.534975 -42.051194 24.957733 10.463502 
-0.308776 -0.218281 0.966070 -155.454922 3.969830 92.422981 6.454536 5.572654 19.580557 -2.817035 -20.134257 4.673287 -4.590160 0.704420 -18.973060 0.000000 -0.000000 0.000000 -1.386369 6.005895 -40.064001 1.448677 -12.179427 21.217624 6.082107 -11.914047 -15.579652 0.000000 -0.000000 0.000000 -3.638006 -7.369493 11.303537 1.743294 -1.776690 -5.664776 2.392204 -5.860037 -1.259368 8.506812 -2.048165 -9.427325 -5.216860 -3.345213 4.579475 -29.421491 -7.191725 -1.260003 -41.191467 -7.803066 5.858125 14.012956 -41.608593 -10.168760 20.640497 -9.316124 1.605885 21.706913 10.887657 -16.271723 2.445760 34.578674 -25.436920 -126.511296 50.949714 -117.888954 -43.294990 24.577115 10.284630 
-0.314237 -0.172211 0.967709 -154.440382 4.043047 92.923911 7.410916 3.073144 20.713949 -3.681552 -20.037258 6.472064 -6.334527 1.797823 -12.848763 0.000000 -0.000000 0.000000 -2.465741 6.916289 -40.349120 2.715723 -14.055169 26.393012 5.078292 -14.744606 -12.166604 0.000000 -0.000000 0.000000 -3.723646 -8.035640 8.956162 2.046725 -1.224209 -4.518024 1.281730 -5.445232 -1.276859 9.557867 -1.185802 -11.381229 -5.983840 -4.962086 7.050867 -28.885486 -5.336683 -0.620615 -41.896012 -7.754355 6.002744 15.466583 -41.406931 -8.901482 20.310149 -8.387163 -2.500892 22.108817 11.775804 -15.311790 5.352394 39.304791 -23.639664 -116.830374 53.228993 -104.232564 -43.048373 21.246079 5.509562 
-0.320729 -0.125709 0.974281 -154.131831 4.447099 92.894378 8.655437 1.534799 20.342613 -5.239640 -18.839330 11.417202 -7.312800 1.879711 -5.175488 0.000000 -0.000000 0.000000 -2.033191 7.307494 -37.595690 5.212480 -15.001825 27.272652 2.901793 -16.499677 -11.705709 0.000000 -0.000000 0.000000 -3.198982 -8.333207 6.982709 1.994589 -0.406431 -2.544225 0.203990 -4.951051 -2.735785 9.626042 -2.962410 -12.206851 -6.161644 -4.052515 8.511755 -27.653180 -3.484036 -0.611030 -43.230463 -7.695550 6.760528 17.151843 -40.046357 -10.735872 18.007255 -7.819685 -2.900078 19.415053 13.231883 -14.881182 12.312625 41.652221 -12.551832 -93.952070 51.235620 -86.639069 -27.077764 18.638921 12.833221 
-0.326819 -0.079475 0.984150 -154.343991 5.158185 91.873204 10.393794 0.456980 18.585064 -7.455396 -16.243099 19.749710 -10.476650 2.763829 4.123422 0.000000 -0.000000 0.000000 0.963189 7.013816 -31.809158 6.012034 -13.949342 25.567758 0.205587 -15.339635 -13.513589 0.000000 -0.000000 0.000000 -2.418995 -7.956711 6.972738 0.673464 0.203789 -2.808159 -0.075969 -4.488704 -3.039215 9.764493 -4.441081 -12.119850 -4.760221 -3.185338 10.141403 -26.143863 -2.346834 -1.542827 -43.729225 -6.241711 7.311059 18.115830 -40.459264 -10.653792 18.666972 -6.914137 -3.896491 15.691151 16.145429 -14.416129 9.418383 42.655054 -15.192641 -53.851598 49.245207 -50.600766 -27.567949 19.356604 17.286384 
